<?xml version="1.0" standalone="no"?><!DOCTYPE svg PUBLIC "-//W3C//DTD SVG 1.1//EN" "http://www.w3.org/Graphics/SVG/1.1/DTD/svg11.dtd"><svg t="1705555805885" class="icon" viewBox="0 0 1024 1024" version="1.1" xmlns="http://www.w3.org/2000/svg" p-id="15122" xmlns:xlink="http://www.w3.org/1999/xlink" width="128" height="128"><path d="M512 64c247.424 0 448 200.576 448 448S759.424 960 512 960 64 759.424 64 512 264.576 64 512 64z m28 128h-56a8 8 0 0 0-8 8v624a8 8 0 0 0 8 8h56a8 8 0 0 0 8-8V200a8 8 0 0 0-8-8z m144 140h-56a8 8 0 0 0-8 8v344a8 8 0 0 0 8 8h56a8 8 0 0 0 8-8V340a8 8 0 0 0-8-8z m-288 0h-56a8 8 0 0 0-8 8v344a8 8 0 0 0 8 8h56a8 8 0 0 0 8-8V340a8 8 0 0 0-8-8z m432 92h-56a8 8 0 0 0-8 8v160a8 8 0 0 0 8 8h56a8 8 0 0 0 8-8V432a8 8 0 0 0-8-8z m-576 0h-56a8 8 0 0 0-8 8v160a8 8 0 0 0 8 8h56a8 8 0 0 0 8-8V432a8 8 0 0 0-8-8z" p-id="15123"></path></svg>